<?xml version="1.0" encoding="UTF-8"?> <svg xmlns="http://www.w3.org/2000/svg" viewBox="0 0 206.46 150.87"><g id="Layer_2" data-name="Layer 2"><g id="Layer_1-2" data-name="Layer 1"><path d="M157.87,86l.9.33c-1.12,7.93-6.82,15.08-18.21,15.08-14,0-20.55-10-20.55-20.1,0-13.18,8.26-21.88,21-21.88S158.77,66,158.88,76.6H133.74c-.22,10.16,5.59,15.07,13.74,15.07A11.9,11.9,0,0,0,157.87,86ZM133.74,74.59h11.18c-.12-4.8-1.35-12.84-5.25-12.84C135.53,61.64,134.19,68.23,133.74,74.59Z"></path><path d="M182.67,99.27v1.11H161.56V99.27c3-.9,3.35-2,3.35-4.92v-39c0-2.35-1.56-3.91-4.47-4.47l-.78-.11V49.69l18.54-5.13h1.12V94.24C179.32,97.26,179.66,98.26,182.67,99.27Z"></path><path d="M206.46,99.27v1.11H185.35V99.27c3-.9,3.35-2,3.35-4.92v-39c0-2.35-1.56-3.91-4.46-4.47l-.79-.11V49.69L202,44.56h1.11V94.24C203.11,97.26,203.45,98.26,206.46,99.27Z"></path><path d="M114,48.58v1.11c6.7.9,6.26,3.91,5,7l-.78,2.12h1.34c1.56-3,4.47-8.38,9.6-9.16V48.58Z"></path><path d="M79.57,82.85,69.63,56.73c-1.34-3.69-1.68-6,2-7V48.58h-25v1.11c5.69.9,7.26,3.69,8.71,7L73.54,101.5h1.11L80.8,85.64Z"></path><path d="M108.83,82.63,98.67,56.73c-1.34-3.69-1.68-6,2.12-7V48.58h-25v1.11c4.92.78,7,3.24,8.49,7l2.79,6.7,1.12,2.9,14.41,35.06h1.12l6.14-15.63Z"></path><path d="M12.49,84.11l-.42,1.5a3.83,3.83,0,0,0-.19,1.15,1.76,1.76,0,0,0,1,1.71,8.23,8.23,0,0,0,3.38.49l-.45,1.52H2.58L3,89a10.39,10.39,0,0,0,2-.15,3.82,3.82,0,0,0,1.5-.6,3.86,3.86,0,0,0,1.14-1.35,12.14,12.14,0,0,0,.89-2.37l4.63-17.31a9.59,9.59,0,0,0,.34-2.28A2.11,2.11,0,0,0,13,63.33a2.22,2.22,0,0,0-1.59-.48A9.85,9.85,0,0,0,5.6,64.56a13.4,13.4,0,0,0-4.08,4.78H0l3.6-8.08H28.66l-.75,8.08H26.46c1.14-4,1.64-5.48.88-6s-4.16-.48-5.94-.48a6.18,6.18,0,0,0-1.61.19,2.8,2.8,0,0,0-1.17.69,4.37,4.37,0,0,0-.92,1.36A14.29,14.29,0,0,0,17,67.33Z"></path><path d="M34,78.68c.43-1.29.74-2.31.93-3.07a8.4,8.4,0,0,0,.28-2A2,2,0,0,0,35,72.36,1.18,1.18,0,0,0,34,72a3.67,3.67,0,0,0-2.32.91,10.61,10.61,0,0,0-2.29,2.85A38.65,38.65,0,0,0,27,80.69c-.84,2-1.72,4.39-2.66,7.17l-.87,2.62H20.26l7.51-25.73c.57-2-1.43-1.92-2.72-2l.27-1.52,7.54-1.88L28.65,73.63l.11.08A9.17,9.17,0,0,1,31.57,71a6.3,6.3,0,0,1,3.34-1,3.52,3.52,0,0,1,2.77,1.06,4.49,4.49,0,0,1,1,3.08,13.68,13.68,0,0,1-.38,2.92,31.27,31.27,0,0,1-1.18,3.83c-.5,1.37-.9,2.44-1.17,3.23s-.48,1.38-.61,1.8-.21.7-.25.85a1.62,1.62,0,0,0-.06.38c0,.59.25.88.73.88a3.28,3.28,0,0,0,1.87-.9,12.12,12.12,0,0,0,2.26-2.48l1.07.8a11.41,11.41,0,0,1-1.5,2.08,11.68,11.68,0,0,1-1.94,1.73,10.66,10.66,0,0,1-2.12,1.18,5.45,5.45,0,0,1-2,.43,1.77,1.77,0,0,1-1.48-.57,2.86,2.86,0,0,1-.46-1.82,9.69,9.69,0,0,1,.11-1.37c.08-.47.21-1.08.4-1.8s.46-1.6.8-2.65S33.48,80.27,34,78.68Z"></path><path d="M53.36,85.44q-3.3,5.41-8.12,5.42a5.08,5.08,0,0,1-4-1.61,6.77,6.77,0,0,1-1.4-4.57,13.62,13.62,0,0,1,1.08-5.24,18.16,18.16,0,0,1,2.83-4.73,15.31,15.31,0,0,1,3.91-3.41A8.3,8.3,0,0,1,52,70a4.6,4.6,0,0,1,3,.93,2.92,2.92,0,0,1,1.16,2.37,4.73,4.73,0,0,1-1,2.73,12,12,0,0,1-2.67,2.66,22,22,0,0,1-4,2.28,25,25,0,0,1-4.8,1.59c0,.36-.09.7-.11,1s0,.69,0,1q0,4.14,2.92,4.14a4.9,4.9,0,0,0,2.9-1.11,11.78,11.78,0,0,0,2.79-3ZM51.19,71.77a3.59,3.59,0,0,0-2,.76,10.25,10.25,0,0,0-2,2,17.68,17.68,0,0,0-1.76,2.91,20.19,20.19,0,0,0-1.29,3.37,17.67,17.67,0,0,0,3.38-1.29,12.46,12.46,0,0,0,2.67-1.8,8.79,8.79,0,0,0,1.77-2.12,4.49,4.49,0,0,0,.64-2.26C52.52,72.3,52.08,71.77,51.19,71.77Z"></path><path d="M75.85,35.48l.7-.63a1.92,1.92,0,0,0-.24.45C76.19,35.47,76,35.45,75.85,35.48Z"></path><path d="M77.21,34.29l.13-.11.14,0Z"></path><path d="M78.58,33.4a4.41,4.41,0,0,1-.67.49A2.28,2.28,0,0,1,78.58,33.4Z"></path><path d="M77.63,34.28c0-.12,0-.21-.15-.15h0l.43-.24A1.58,1.58,0,0,0,77.63,34.28Z"></path><path d="M77.63,34.28c0,.12-.11.27-.13.33A1.51,1.51,0,0,1,77.63,34.28Z"></path><path d="M79,35.43c.16-.06-.18-.43.14-.54A16.47,16.47,0,0,0,81.06,34c.32-.09.41-.83.73-.92.68-.35,2.64-.79,1.69-.21-.73.4-1.3.79-1.88,1.12s-1.15.67-1.76,1.1l-1.64.86c-.54.29-1.07.61-1.61,1a6.2,6.2,0,0,0-.75.69l.91-1.06C77.16,36,78.16,35.94,79,35.43Z"></path><path d="M71,40.34l.46-.22A3.24,3.24,0,0,1,73,38.51l-.07.4c-.34.28-.47.22-.27-.13a6.33,6.33,0,0,1-1.62,2C71,40.66,70.88,40.56,71,40.34Z"></path><path d="M70.67,41.12l.38-.33s0,0,0,.05l-.41.3Z"></path><path d="M81.63,31.75,84.26,30l2.58-1.56c.18,0,.33.06.48-.08a1.7,1.7,0,0,1,.32-.38l.76-.42.28-.11h0c.17,0,.16.06.11.17a1.73,1.73,0,0,0-.19.31c0-.07.13-.2.19-.31a1.6,1.6,0,0,1,.35-.33A4.14,4.14,0,0,0,89.9,27a2.18,2.18,0,0,0-.75.34l-.47.16-.14,0c.57-.34,1.16-.61,1.74-.93l.39-.14c.46-.14.91-.28,1.09-.61l.32-.15,0,.07.1-.1L93.5,25c.33-.05.69,0,1-.09l.23-.35a1.11,1.11,0,0,0,.61,0c-.2.23-.37.47-.55.65-.22.35-.88-.23-1.07.37.19-.6.85,0,1.07-.37.18-.18.35-.42.55-.65a3.06,3.06,0,0,0,1.41-.74,1.72,1.72,0,0,0-1.41.74,1.11,1.11,0,0,1-.61,0l-.23.35c-.33.05-.69,0-1,.09.89-.4,1.81-.77,2.75-1.16a44.25,44.25,0,0,1,9.24-2.5,52.9,52.9,0,0,1,20.58.84,32.52,32.52,0,0,1,9.5,4.21l2.16,1.43c.71.5,1.41,1,2.13,1.53S141.28,30.42,142,31l1.08.84.55.41.58.48c2.27,1.93,4.93,6.1,6.33,8.4.62,1.75.19,2.57-.41,2.83a2.34,2.34,0,0,1-1.42.1A5.37,5.37,0,0,1,146,42a19.94,19.94,0,0,0-3.28-3.48c1.09,1,1,.37.33-.65A7.53,7.53,0,0,0,139.65,35a21,21,0,0,1-5.53-3.52c-.47-.34-.92-.73-1.41-1.07l-1.47-1c-.52-.3-1-.59-1.55-.86a11.12,11.12,0,0,0-1.61-.66l-1.65-.62-.88-.36-.94-.3a65.34,65.34,0,0,0-10.19-1.72,36.08,36.08,0,0,0-10.69.58c-1,.21-1.92.27-2.83.38L99.55,26c-.44,0-.87.11-1.3.17a25.52,25.52,0,0,0-3.34,1.33c-1.48.6-2.82,1-4.1,1.36,1.37-.57,2.42-.86,4-1.42.51-.17.28-.25-.18-.28a8.69,8.69,0,0,0-1.5.14c-.34,0-.57.72-.9.74a11.55,11.55,0,0,1-2,.54c-.33,0-.08.47-.24.49-.94.36-1.92.16-2.43.58s-.73.6-1.07.87a4.93,4.93,0,0,1-.7.45l-.53.17a1.25,1.25,0,0,0-.06-.58c-.22.16-.49.45-.7.62.21-.17.48-.46.7-.62a1.25,1.25,0,0,1,.06.58,32.91,32.91,0,0,0-4,1.73v0a7.36,7.36,0,0,0,1-.74,6.32,6.32,0,0,0,.92-.94c-.26.3-.14.39.24.18l.14-.39a3.19,3.19,0,0,0-1.81,1.29l-.49.14c-.16.2-.06.32,0,.46l-.43.25A7.59,7.59,0,0,1,81.63,31.75Z"></path><path d="M89.16,27.3l-.39.16c.48-.28,1-.52,1.47-.78C90.07,27,89.62,27.16,89.16,27.3Z"></path><path d="M140.63,6.23l.47.09a.74.74,0,0,0-.28.12C140.71,6.47,140.69,6.35,140.63,6.23Z"></path><path d="M141.53,6.4l.08,0,.06.06Z"></path><path d="M142.28,6.75a2.24,2.24,0,0,1-.39-.14A.47.47,0,0,1,142.28,6.75Z"></path><path d="M141.62,6.68c.07,0,.11-.12,0-.2h0l.22.13A.6.6,0,0,0,141.62,6.68Z"></path><path d="M141.62,6.68l-.19.14A1.33,1.33,0,0,1,141.62,6.68Z"></path><path d="M141.33,8.43c.06.07.18-.41.3-.27a3,3,0,0,0,.84.68c.1.16.52-.29.63-.13.3.26.91,1.18.42,1-.73-.33-1.18-.63-1.84-.95a15.73,15.73,0,0,0-1.56-1.05,1.4,1.4,0,0,0-.49-.08l.7,0C140.68,7.49,140.89,8.2,141.33,8.43Z"></path><path d="M137.19,5.9l.22.2c.4-.3.77-.1,1.11.09l-.2.22c-.21-.06-.21-.2,0-.28a1.71,1.71,0,0,1-1.3.1C137.05,6.1,137.06,6,137.19,5.9Z"></path><path d="M136.77,6.15l.24.08v0l-.24-.1Z"></path><path d="M143.76,7.74l.74.27.71.31,1.39.56c0,.12,0,.24.14.23a.56.56,0,0,1,.29-.06l.39.18.12.11h0c0,.09,0,.15-.09.19a.78.78,0,0,0-.21.09s.13,0,.21-.09a.5.5,0,0,1,.27,0,.89.89,0,0,0,.35.21.62.62,0,0,0-.35-.21l-.18-.17,0-.08.89.41.16.13c.18.17.35.34.6.2l.17.08-.06,0h.09a5.89,5.89,0,0,1,.66.34c.09.16.17.35.27.5l.27-.12a.51.51,0,0,0,.1.36c-.19.06-.38.13-.53.16s-.05-.63-.46-.33c.41-.3.19.45.46.33s.34-.1.53-.16a.78.78,0,0,0,.79.23c-.13-.34-.47-.32-.79-.23a.51.51,0,0,1-.1-.36l-.27.12c-.1-.15-.18-.34-.27-.5l1.32.69A39.18,39.18,0,0,1,159,17c.67.64,1.33,1.26,2,1.86s1.28,1.25,1.94,1.85a14.11,14.11,0,0,1,1.69,2c.26.35.51.68.75,1l.68,1.07a24.61,24.61,0,0,0,3.2,4.2,9.32,9.32,0,0,1,1.31,2.35c.37.92.6,1.89.81,2.52-.18,2-2.53,1.73-2.67,1.71A2.08,2.08,0,0,1,167,34.48a5.25,5.25,0,0,0-1.47-1.91c.56.52.73.18.55-.4a2.71,2.71,0,0,0-1.57-1.69,3.32,3.32,0,0,1-1.48-1,4.72,4.72,0,0,1-.48-.69c-.15-.25-.3-.5-.43-.76-.26-.53-.5-1.09-.76-1.63A5.56,5.56,0,0,0,160.35,25c-.43-.4-.67-1-1.14-1.48a20,20,0,0,1-1.81-1.89c-.59-.62-1.11-1.3-1.66-2s-1.14-1.3-1.74-1.94-1.3-1.22-2-1.79a9.78,9.78,0,0,1-1.71-2.18,10.65,10.65,0,0,0-1.56-.81,9.27,9.27,0,0,1-1.61-1.39c.58.43,1,.76,1.62,1.28.43.31,0-.75-.21-1.07-.08-.17-.57.2-.65,0-.29-.16-.45-.5-.7-.8-.08-.17-.3.28-.34.2-.37-.33-.42-1.1-.77-1.09l-.71-.06A1.09,1.09,0,0,1,145,9.9l-.19-.22a1.67,1.67,0,0,0,.32-.44c-.13,0-.34,0-.47,0,.13,0,.34,0,.47,0a1.67,1.67,0,0,1-.32.44,9.89,9.89,0,0,0-.79-.8c-.29-.23-.59-.47-.89-.68l0,0a1.74,1.74,0,0,0,1.29.13c-.22,0-.24.17-.06.28l.25-.16a.87.87,0,0,0-1.06-.31l-.17-.24c-.14,0-.18.18-.25.3L142.88,8A3,3,0,0,1,143.76,7.74Z"></path><path d="M147.73,9.5l-.16-.13.76.33C148.08,9.85,147.91,9.68,147.73,9.5Z"></path><path d="M50.15,35.87c.22-.25.44-.52.65-.78a2.36,2.36,0,0,0-.2.51C50.5,35.8,50.34,35.81,50.15,35.87Z"></path><path d="M51.41,34.38l.11-.14.14-.09Z"></path><path d="M52.68,33.15a4.27,4.27,0,0,1-.62.65A3.08,3.08,0,0,1,52.68,33.15Z"></path><path d="M51.83,34.28c0-.13,0-.23-.16-.13h0l.4-.35A2.1,2.1,0,0,0,51.83,34.28Z"></path><path d="M51.83,34.28c0,.12-.08.29-.08.36A1.68,1.68,0,0,1,51.83,34.28Z"></path><path d="M53.44,35.13c.16-.1-.24-.4.08-.58a16,16,0,0,0,1.81-1.45c.32-.19.28-1,.6-1.16.65-.54,2.58-1.58,1.72-.72-1.32,1.32-2.24,2.15-3.43,3.32-1.06.86-2.1,1.67-3.14,2.6a5.53,5.53,0,0,0-.68.87c.24-.41.5-.83.8-1.29C51.56,36.1,52.61,35.88,53.44,35.13Z"></path><path d="M45.78,42l.44-.34a3.79,3.79,0,0,1,1.38-2l0,.44c-.31.36-.46.32-.29-.08a9,9,0,0,1-1.39,2.45C45.82,42.29,45.69,42.21,45.78,42Z"></path><path d="M45.56,42.84l.34-.42,0,0c-.13.13-.25.27-.37.41Z"></path><path d="M55.53,30.7l4.58-4.87c.19,0,.36,0,.48-.23a1.82,1.82,0,0,1,.25-.48l.67-.65.27-.2h0c.17-.08.18,0,.15.14a2.91,2.91,0,0,0-.12.35c0-.07.09-.23.12-.35a1.84,1.84,0,0,1,.28-.45,4.57,4.57,0,0,0,.67-.59,2.66,2.66,0,0,0-.67.59l-.44.31-.14.07,1.53-1.51.35-.27c.42-.31.87-.58,1-1l.29-.25,0,.08.08-.13L66,20.21c.33-.15.69-.28,1-.46l.13-.42a1.2,1.2,0,0,0,.62-.19c-.13.31-.24.6-.36.84-.13.42-1,.12-1,.76,0-.64.85-.34,1-.76.12-.24.23-.53.36-.84A3.56,3.56,0,0,0,69,17.92a2,2,0,0,0-1.22,1.22,1.2,1.2,0,0,1-.62.19l-.13.42c-.32.18-.68.31-1,.46.81-.69,1.58-1.44,2.45-2.12A78.25,78.25,0,0,1,86.41,7.22c1.84-.77,3.65-1.56,5.45-2.29l2.73-1c.9-.32,1.79-.7,2.71-.94A52.33,52.33,0,0,1,108.2.89c1.82-.13,3.65-.4,5.52-.45.93,0,1.87-.12,2.83-.22l.72-.07.72,0L119.46,0a23.89,23.89,0,0,1,2.67,0,29.62,29.62,0,0,1,3.1.44c1.06.19,2.11.34,3.06.59l2.52.69c3.55,1.74,1,3.3.8,3.38A5.66,5.66,0,0,1,128,5.5l-1-.18c-.36,0-.75-.07-1.18-.09a20.76,20.76,0,0,0-3,0c1.56-.05,1.05-.43-.26-.71a11.15,11.15,0,0,0-4.9.28c-.53.17-1.09.36-1.66.5a14.68,14.68,0,0,1-1.78.29c-.61.06-1.23.09-1.87.1l-1.95.09-2,0-1,0c-.34,0-.67.07-1,.1a30.38,30.38,0,0,0-3.91.63c-1.23.38-2.57.6-4.06,1-1,.26-1.88.66-2.81,1s-1.85.61-2.77.89-1.81.68-2.72,1-1.84.6-2.72,1L84.7,12.51c-.45.2-.91.37-1.36.58L82,13.76l-2.7,1.39c-.9.48-1.75,1.07-2.64,1.63s-1.92,1-2.82,1.47-1.79.88-2.63,1.33a12.08,12.08,0,0,0-1.66,1.26c-.5.48-1,.93-1.4,1.29-1.37,1.11-2.69,1.91-3.88,2.77,1.24-1.07,2.28-1.68,3.73-2.78,1-.74-1.05,0-1.78.44-.34.14-.4.9-.74,1a16,16,0,0,1-1.9,1.25c-.33.15,0,.49-.13.57-.88.66-2,.77-2.38,1.35-.35.41-.6.84-.88,1.23a6.37,6.37,0,0,1-.61.67l-.5.35a1.17,1.17,0,0,0-.19-.56c-.19.23-.39.6-.58.83.19-.23.39-.6.58-.83a1.17,1.17,0,0,1,.19.56,46.67,46.67,0,0,0-3.8,2.93l0-.05a8.56,8.56,0,0,0,1.67-2.24c-.21.37-.07.43.28.11l.06-.44a3.72,3.72,0,0,0-1.59,1.83l-.48.28c-.13.24,0,.33.06.46l-.4.38A9.26,9.26,0,0,1,55.53,30.7Z"></path><path d="M62.22,23.94l-.35.27,1.27-1.27C63.07,23.33,62.65,23.63,62.22,23.94Z"></path><path d="M129.71,115.27l-.76.66a1.88,1.88,0,0,0,.28-.46C129.36,115.29,129.52,115.3,129.71,115.27Z"></path><path d="M128.24,116.54l-.13.12-.15.06Z"></path><path d="M126.79,117.53a5.67,5.67,0,0,1,.72-.52A2.48,2.48,0,0,1,126.79,117.53Z"></path><path d="M127.81,116.57c0,.13,0,.22.15.16h0l-.45.29A1.91,1.91,0,0,0,127.81,116.57Z"></path><path d="M127.81,116.57c0-.12.12-.28.14-.34A1.88,1.88,0,0,1,127.81,116.57Z"></path><path d="M126.38,115.47c-.17.06.18.44-.17.55a14.68,14.68,0,0,0-2,1c-.34.11-.44.89-.79,1-.76.33-2.82.89-1.81.26,1.56-.9,2.56-1.53,3.93-2.41,1.18-.62,2.29-1.28,3.47-2a4.77,4.77,0,0,0,.79-.76,13.71,13.71,0,0,1-1,1.14C128.35,114.82,127.29,114.87,126.38,115.47Z"></path><path d="M134.93,110l-.49.25a4,4,0,0,1-1.66,1.76l.08-.44c.35-.31.49-.25.27.13a7.7,7.7,0,0,1,1.75-2.17C134.94,109.67,135.06,109.77,134.93,110Z"></path><path d="M135.3,109.18l-.42.35s0,0,0,0l.43-.33Z"></path><path d="M123.51,119.33c-1,.61-1.9,1.27-2.85,1.83s-1.87,1.13-2.8,1.66c-.19,0-.34-.06-.51.09a1.91,1.91,0,0,1-.37.38l-.82.44-.31.12h0c-.18,0-.17-.07-.11-.18a2,2,0,0,0,.22-.31c0,.06-.15.2-.22.31a1.86,1.86,0,0,1-.38.35c-.27.11-.54.21-.82.35a2,2,0,0,0,.82-.35l.5-.17.15,0-.94.51-1,.45c-.15,0-.3.11-.43.14-.5.14-1,.28-1.19.63l-.35.16.05-.07-.11.1c-.49.22-1,.41-1.5.61-.36,0-.74,0-1.1.09l-.26.36a1.37,1.37,0,0,0-.65,0c.24-.23.43-.48.63-.66.25-.35.92.21,1.16-.38-.24.59-.91,0-1.16.38-.2.18-.39.43-.63.66a3.08,3.08,0,0,0-1.56.69,2.08,2.08,0,0,0,1.56-.69,1.37,1.37,0,0,1,.65,0l.26-.36c.36,0,.74-.06,1.1-.09a31.83,31.83,0,0,1-3,1.12,42.45,42.45,0,0,1-10.11,2.16,54.14,54.14,0,0,1-10.57,0c-1-.11-2-.15-3-.31s-2-.38-2.93-.61a57.47,57.47,0,0,1-5.53-1.75,39.45,39.45,0,0,1-9.7-5.43A83.54,83.54,0,0,1,57.05,114a20.21,20.21,0,0,1-3.38-5,28.63,28.63,0,0,1-2.05-5.64c-.12-2.09.56-2.69,1.2-2.77a2.27,2.27,0,0,1,1.4.39,6.58,6.58,0,0,1,1.27,1.36,11.75,11.75,0,0,1,.82,1.54A13.23,13.23,0,0,0,59,108.1c-1-1.14-1-.54-.41.63a8.58,8.58,0,0,0,3.28,3.42,25.36,25.36,0,0,1,5.61,4.27,25.62,25.62,0,0,0,6.29,4.46c1.15.51,2.28,1.21,3.64,1.8,1.82.65,3.6,1.28,5.35,1.78.86.25,1.73.47,2.53.62l2.79.44a40.27,40.27,0,0,0,11.61,0c.53-.07,1-.11,1.57-.14s1-.08,1.49-.1c1-.07,2,0,2.86-.2a14.65,14.65,0,0,0,2-.6c.62-.21,1.19-.52,1.71-.69,1.63-.53,3-1,4.45-1.35-1.51.54-2.61.92-4.32,1.4-1.12.37,1,.33,1.79.2.36,0,.64-.75,1-.78a14.8,14.8,0,0,1,2.18-.53c.35,0,.1-.48.28-.51,1-.38,2-.18,2.6-.62a14.44,14.44,0,0,0,1.17-.92,5.72,5.72,0,0,1,.76-.47l.57-.19a1.17,1.17,0,0,0,0,.59c.24-.17.53-.47.77-.63-.24.16-.53.46-.77.63a1.17,1.17,0,0,1,0-.59,17.2,17.2,0,0,0,2.15-.86c.73-.33,1.48-.65,2.17-1v0A8.19,8.19,0,0,0,121.9,120c.28-.32.17-.4-.24-.17l-.16.4a3.93,3.93,0,0,0,2-1.38l.53-.14c.17-.21.07-.34,0-.48l.46-.28a4.45,4.45,0,0,1-.54.85C123.71,119.1,123.51,119.33,123.51,119.33Z"></path><path d="M115.34,124l.41-.16c-.52.3-1,.56-1.6.81C114.34,124.34,114.85,124.23,115.34,124Z"></path><path d="M56.93,141.26l-.49-.24a.74.74,0,0,0,.32,0C56.89,141,56.9,141.13,56.93,141.26Z"></path><path d="M56,140.8l-.09,0,0-.07Z"></path><path d="M55.22,140.23a1.11,1.11,0,0,1,.4.26A.91.91,0,0,1,55.22,140.23Z"></path><path d="M55.93,140.5c-.08,0-.15.09-.09.18h0l-.22-.2A.82.82,0,0,0,55.93,140.5Z"></path><path d="M55.93,140.5l.24-.08Z"></path><path d="M56.59,138.84c-.05-.09-.28.35-.38.16a4.48,4.48,0,0,0-.85-.92c-.1-.19-.64.14-.74-.05-.3-.35-.83-1.52-.32-1.14.75.61,1.25,1,1.94,1.54.5.54,1,1,1.57,1.57a1.86,1.86,0,0,0,.54.24l-.81-.18C57.14,140,57.05,139.22,56.59,138.84Z"></path><path d="M60.6,142.81l-.17-.28c-.54.14-.86-.19-1.19-.51l.28-.14c.21.14.18.28-.07.28a2.34,2.34,0,0,1,1.46.4C60.82,142.67,60.76,142.81,60.6,142.81Z"></path><path d="M61.15,142.73l-.24-.17,0,0,.23.2Z"></path><path d="M53.73,138.81c-1-.71-2-1.32-3-2,0-.13,0-.26-.12-.28a1.15,1.15,0,0,1-.33,0l-.42-.28-.11-.14h0c0-.11,0-.15.13-.17a1.09,1.09,0,0,0,.25,0l-.25,0a.6.6,0,0,1-.3-.06,1.24,1.24,0,0,0-.36-.32.89.89,0,0,0,.36.32l.18.23,0,.08c-.32-.2-.61-.45-.93-.67l-.15-.19c-.17-.23-.34-.46-.63-.39l-.16-.13H48l-.09,0c-.23-.17-.48-.34-.71-.52a5.64,5.64,0,0,0-.21-.62l-.31,0a.55.55,0,0,0-.06-.4,6,6,0,0,1,.6,0c.3-.05,0,.67.44.49-.48.18-.14-.54-.44-.49a6,6,0,0,0-.6,0,1,1,0,0,0-.82-.48c.1.4.46.47.82.48a.55.55,0,0,1,.06.4l.31,0a5.64,5.64,0,0,1,.21.62l-1.32-1.14c-.36-.31-.73-.61-1.07-.94l-1-1a21.5,21.5,0,0,1-1.83-2.1c-.56-.74-1.15-1.46-1.7-2.24s-1-1.6-1.62-2.42a15.4,15.4,0,0,1-.87-1.35L37,121.71l-.86-1.32-.77-1.34c-.51-.89-1-1.8-1.36-2.71s-.64-1.85-1-2.78A34.72,34.72,0,0,0,30.65,108a7.33,7.33,0,0,1-.54-1.33c-.13-.51-.23-1.06-.32-1.62-.18-1.11-.3-2.23-.4-3,.48-2.14,2.78-1.38,2.91-1.32,2,.93,1.17,2,2.64,4.23-.44-.76-.68-.4-.62.31a3.63,3.63,0,0,0,1.29,2.38,3.94,3.94,0,0,1,1.28,1.58,5.83,5.83,0,0,1,.34.94c.1.33.21.66.29,1,.16.68.32,1.39.48,2.09a6.64,6.64,0,0,0,.75,2,18.21,18.21,0,0,1,.9,2c.27.46.5.92.76,1.37s.51.88.74,1.33c.48.89.85,1.84,1.36,2.7l.72,1.34A11.82,11.82,0,0,0,44,125.3a24.32,24.32,0,0,0,1.86,2.55,17.08,17.08,0,0,1,1.53,2.83A14.82,14.82,0,0,0,49,132a10.25,10.25,0,0,1,1.59,1.92l-1.61-1.8c-.43-.47-.14.78.11,1.15.06.2.64,0,.71.17a4.2,4.2,0,0,1,.65,1c.07.21.37-.2.4-.1.38.44.36,1.21.74,1.33s.52.2.76.28a1.72,1.72,0,0,1,.4.26l.19.28a1.74,1.74,0,0,0-.42.35c.15.07.39.1.54.16-.15-.06-.39-.09-.54-.16a1.74,1.74,0,0,1,.42-.35,19.24,19.24,0,0,0,1.67,2l0,0a2.47,2.47,0,0,0-1.4-.54c.24,0,.29-.1.1-.27l-.3.11c.29.35.59.72,1.12.64l.15.29c.16,0,.24-.13.33-.23l.23.18a2,2,0,0,1-.63.07C53.91,138.83,53.73,138.81,53.73,138.81Z"></path><path d="M49.57,135.88l.16.18c-.27-.18-.52-.38-.78-.57C49.23,135.41,49.4,135.64,49.57,135.88Z"></path><path d="M153.7,116.47c-.22.3-.43.6-.65.89a1.88,1.88,0,0,0,.19-.55C153.34,116.59,153.51,116.56,153.7,116.47Z"></path><path d="M152.45,118.18l-.11.16-.14.11Z"></path><path d="M151.17,119.61a5.15,5.15,0,0,1,.62-.75A3.31,3.31,0,0,1,151.17,119.61Z"></path><path d="M152,118.34c0,.14,0,.23.17.11h0l-.41.41A2.86,2.86,0,0,0,152,118.34Z"></path><path d="M152,118.34c0-.14.07-.32.07-.39A2,2,0,0,1,152,118.34Z"></path><path d="M150.33,117.62c-.16.12.26.39-.06.62a17.67,17.67,0,0,0-1.84,1.68c-.32.21-.28,1-.61,1.23-.68.6-2.68,1.8-1.77.84,1.36-1.43,2.3-2.34,3.49-3.67,1.07-1,2.12-2,3.16-3.06a8.83,8.83,0,0,0,.68-1c-.24.46-.5.93-.79,1.44C152.24,116.4,151.16,116.75,150.33,117.62Z"></path><path d="M158.13,109.71l-.46.38a4.57,4.57,0,0,1-1.43,2.21c0-.15,0-.31,0-.46.32-.4.46-.37.29.06a9.28,9.28,0,0,1,1.47-2.66C158.09,109.36,158.23,109.44,158.13,109.71Z"></path><path d="M158.38,108.77l-.36.47,0,0q.19-.24.39-.45Z"></path><path d="M148.22,122.42c-.83,1-1.7,1.83-2.53,2.71l-2.44,2.58c-.18.06-.36.06-.5.26a2,2,0,0,1-.29.5l-.74.69-.3.21h0c-.19.08-.19,0-.16-.15a1.44,1.44,0,0,0,.15-.37c0,.08-.11.24-.15.37a1.81,1.81,0,0,1-.31.47,6.18,6.18,0,0,0-.74.63,3,3,0,0,0,.74-.63l.47-.33.16-.07-1.69,1.6-.39.29c-.46.32-.93.64-1.06,1l-.32.26,0-.08-.1.13-1.36,1.12c-.36.16-.74.3-1.1.48l-.16.44a1.39,1.39,0,0,0-.67.2c.16-.31.29-.62.45-.87.16-.43,1-.13,1.08-.79-.09.66-.92.36-1.08.79-.16.25-.29.56-.45.87a3.63,3.63,0,0,0-.74.55,3.58,3.58,0,0,0-.64.71,2.24,2.24,0,0,0,.87-.5,3.74,3.74,0,0,0,.51-.76,1.39,1.39,0,0,1,.67-.2l.16-.44c.36-.18.74-.32,1.1-.48-.9.72-1.77,1.5-2.73,2.21a72.64,72.64,0,0,1-20.1,10.53l-3.08,1c-1,.32-2,.71-3,.93l-3,.8-1.51.4-1.53.3a40.4,40.4,0,0,1-6,.84,51.49,51.49,0,0,1-6,.18l-3,0c-.5,0-1,0-1.5-.06l-1.51-.09c-1,0-2-.09-3.06-.1s-2.07-.16-3.14-.19c-.82-.05-1.8-.17-2.86-.34s-2.17-.55-3.28-.86l-1.65-.48a14.26,14.26,0,0,1-1.56-.52l-2.61-1c-3.63-2.23-.75-3.44-.55-3.5a6.44,6.44,0,0,1,3.92.15l1.07.31a12.45,12.45,0,0,0,1.25.26,24.34,24.34,0,0,0,3.2.39c-1.69-.16-1.18.29.2.74a9.86,9.86,0,0,0,2.55.46,11.31,11.31,0,0,0,2.75-.1,18.64,18.64,0,0,1,3.8-.36c1.33,0,2.71.22,4.14.26s2.89.26,4.34.29a39.8,39.8,0,0,0,4.28-.27l4.49-.58c.53-.11,1-.19,1.57-.31l1.55-.39c1-.25,2.05-.47,3.08-.69s2-.56,3-.81,2-.5,3-.84l3-1,1.52-.51c.5-.19,1-.41,1.48-.62l3-1.32a13.69,13.69,0,0,0,1.48-.75l1.48-.83c.52-.29,1-.54,1.57-.77s1-.43,1.53-.68c1-.47,2-.89,2.89-1.34a11.9,11.9,0,0,0,1.84-1.29c.56-.49,1.08-1,1.56-1.34.76-.57,1.49-1.07,2.21-1.53s1.35-.95,2-1.38c-.69.54-1.27,1-1.94,1.47s-1.33.89-2.14,1.45c-1.06.77,1.11,0,1.9-.47.37-.14.49-.92.85-1.06a15.43,15.43,0,0,1,2.05-1.34c.36-.17,0-.51.17-.59,1-.71,2.09-.84,2.56-1.46l1-1.32a6.51,6.51,0,0,1,.67-.73l.54-.38a1.1,1.1,0,0,0,.17.58c.2-.25.43-.65.64-.89-.21.24-.44.64-.64.89a1.1,1.1,0,0,1-.17-.58c.65-.46,1.34-1,2-1.51s1.35-1.14,2-1.72l0,0a10.52,10.52,0,0,0-1.77,2.45c.23-.4.09-.45-.29-.1l-.09.45a4.23,4.23,0,0,0,1.71-2l.5-.32c.13-.26,0-.36-.06-.49l.41-.42A9,9,0,0,1,148.22,122.42Z"></path><path d="M140.94,129.73l.39-.29-1.41,1.35C140,130.37,140.48,130.05,140.94,129.73Z"></path></g></g></svg> 